<svg width="215" height="34" xmlns="http://www.w3.org/2000/svg"><g fill="none" fill-rule="nonzero"><path d="M59.47 7.26v3.36a8.03 8.03 0 0 0-5.16-2.06c-1.96 0-3.61.7-4.95 2.08a6.99 6.99 0 0 0-2.03 5.07c0 1.98.68 3.65 2.03 5a6.73 6.73 0 0 0 4.96 2.04c1.01 0 1.88-.16 2.58-.48.43-.19.84-.4 1.23-.66.43-.28.87-.61 1.34-1v3.43a10.46 10.46 0 0 1-5.19 1.38 9.64 9.64 0 0 1-6.97-2.81 9.28 9.28 0 0 1-2.88-6.86c0-2.4.8-4.54 2.4-6.41a9.64 9.64 0 0 1 7.68-3.46c1.71 0 3.37.46 4.96 1.38zm3.1 5.94h2.78v1.06a5.3 5.3 0 0 1 1.36-1.08c.4-.2.88-.3 1.43-.3.73 0 1.5.23 2.3.7l-1.27 2.51a2.68 2.68 0 0 0-1.55-.56c-1.51 0-2.27 1.13-2.27 3.4v6.15h-2.78V13.2zm11.51 5.9c0 1.2.32 2.13.97 2.82.66.7 1.52 1.05 2.6 1.05a3.4 3.4 0 0 0 2.6-1.03c.66-.7.98-1.62.98-2.77 0-1.16-.32-2.08-.97-2.77a3.41 3.41 0 0 0-2.6-1.05c-1.07 0-1.93.35-2.59 1.05-.66.7-.99 1.6-.99 2.7zm-2.84-.04c0-1.72.62-3.18 1.87-4.38a6.3 6.3 0 0 1 4.54-1.8c1.8 0 3.32.6 4.57 1.81a6 6 0 0 1 1.86 4.47c0 1.77-.63 3.27-1.87 4.47a6.42 6.42 0 0 1-4.6 1.8c-1.81 0-3.32-.62-4.54-1.84a6.1 6.1 0 0 1-1.83-4.53zm22.77-3.83l-2.3 1.2c-.36-.72-.81-1.08-1.35-1.08a.93.93 0 0 0-.65.25.83.83 0 0 0-.27.64c0 .45.53.9 1.6 1.35a9.62 9.62 0 0 1 2.98 1.73c.5.53.76 1.24.76 2.13 0 1.15-.43 2.1-1.28 2.88a4.41 4.41 0 0 1-3.02 1.1c-2.01 0-3.44-.98-4.28-2.92l2.37-1.09c.33.57.58.93.75 1.09.34.3.75.46 1.21.46.94 0 1.41-.42 1.41-1.27 0-.48-.36-.94-1.08-1.36a45.85 45.85 0 0 0-1.7-.8 5.2 5.2 0 0 1-1.7-1.18 2.86 2.86 0 0 1-.63-1.91c0-1.04.36-1.89 1.07-2.56a3.8 3.8 0 0 1 2.67-1.02c1.54 0 2.69.79 3.44 2.36zm10.26 0l-2.3 1.2c-.36-.72-.81-1.08-1.35-1.08a.93.93 0 0 0-.65.25.83.83 0 0 0-.27.64c0 .45.53.9 1.6 1.35a9.62 9.62 0 0 1 2.98 1.73c.51.53.77 1.24.77 2.13 0 1.15-.43 2.1-1.29 2.88a4.4 4.4 0 0 1-3.01 1.1c-2.02 0-3.45-.98-4.29-2.92l2.37-1.09c.33.57.58.93.76 1.09.33.3.74.46 1.2.46.95 0 1.41-.42 1.41-1.27 0-.48-.36-.94-1.08-1.36a45.85 45.85 0 0 0-1.7-.8 5.22 5.22 0 0 1-1.7-1.18 2.86 2.86 0 0 1-.63-1.91c0-1.04.36-1.89 1.08-2.56a3.8 3.8 0 0 1 2.66-1.02c1.54 0 2.69.79 3.44 2.36zM111.28 6.25l5.27 13.05 5.35-13.05h3.15l-8.56 20.25-8.36-20.25zM126.17 19.1c0 1.14.31 2.07.93 2.79a3.05 3.05 0 0 0 2.4 1.08c1.03 0 1.86-.35 2.5-1.05.63-.72.94-1.64.94-2.75 0-1.12-.31-2.04-.95-2.76a3.17 3.17 0 0 0-2.47-1.06c-.95 0-1.75.36-2.4 1.07a3.92 3.92 0 0 0-.95 2.69zm6.6-5.9h2.8v11.88h-2.8v-1.24a5.36 5.36 0 0 1-7.82-.2 6.57 6.57 0 0 1-1.62-4.53c0-1.78.55-3.27 1.62-4.46a5.24 5.24 0 0 1 7.82-.07V13.2zM139.07 25.08h2.78V4.48h-2.78zM145.37 25.08h2.78V13.2h-2.78v11.88zm-.42-16.82c0-.48.18-.9.53-1.24.35-.35.78-.53 1.27-.53.5 0 .93.18 1.28.53.36.34.54.76.54 1.26s-.18.91-.53 1.26c-.35.35-.77.53-1.28.53-.48 0-.94-.18-1.28-.53-.35-.33-.54-.8-.53-1.28zm8.99 10.85c0 1.14.3 2.06.93 2.78a3.05 3.05 0 0 0 2.4 1.08c1.02 0 1.85-.35 2.49-1.05.63-.72.95-1.64.95-2.75 0-1.12-.32-2.04-.95-2.76a3.16 3.16 0 0 0-2.47-1.06c-.96 0-1.76.36-2.4 1.07a3.92 3.92 0 0 0-.95 2.69zm6.6-14.63h2.78v20.6h-2.78v-1.24a5.22 5.22 0 0 1-3.72 1.58c-1.65 0-3.02-.59-4.1-1.78a6.57 6.57 0 0 1-1.62-4.53c0-1.78.54-3.26 1.62-4.44a5.19 5.19 0 0 1 4.03-1.8c1.41 0 2.67.57 3.78 1.71V4.48zm8.56 14.63c0 1.14.31 2.06.93 2.78a3.05 3.05 0 0 0 2.4 1.08c1.03 0 1.86-.35 2.5-1.05.63-.72.94-1.64.94-2.75 0-1.12-.31-2.04-.95-2.76a3.16 3.16 0 0 0-2.47-1.06c-.95 0-1.75.36-2.4 1.07a3.92 3.92 0 0 0-.94 2.69zm6.6-5.9h2.8v11.87h-2.8v-1.24a5.36 5.36 0 0 1-7.82-.2 6.58 6.58 0 0 1-1.62-4.53c0-1.78.55-3.27 1.62-4.46a5.25 5.25 0 0 1 7.82-.07V13.2zM184.87 15.76v9.32h-2.78v-9.32h-1.19V13.2h1.19V8.85h2.78v4.35h2.16v2.56zM197.24 17.55c-.39-1.47-1.32-2.2-2.8-2.2a2.73 2.73 0 0 0-2.38 1.28c-.19.28-.32.6-.4.92h5.58zm2.85 2.24h-8.62c.08.98.4 1.75.97 2.33.56.57 1.3.85 2.18.85.7 0 1.27-.16 1.72-.49.44-.32.95-.92 1.52-1.8l2.34 1.3a9.25 9.25 0 0 1-1.14 1.56c-.38.42-.82.78-1.3 1.07-.46.28-.96.49-1.5.62-.57.13-1.15.2-1.74.2a5.7 5.7 0 0 1-4.32-1.71 6.36 6.36 0 0 1-1.63-4.56c0-1.88.53-3.4 1.58-4.57a5.49 5.49 0 0 1 4.22-1.72c1.78 0 3.17.56 4.2 1.67 1.03 1.11 1.54 2.64 1.54 4.6l-.02.65zm5.31-.68c0 1.14.31 2.06.93 2.78a3.05 3.05 0 0 0 2.4 1.08c1.03 0 1.86-.35 2.5-1.05.63-.72.94-1.64.94-2.75 0-1.12-.31-2.04-.95-2.76a3.16 3.16 0 0 0-2.47-1.06c-.95 0-1.75.36-2.4 1.07a3.92 3.92 0 0 0-.95 2.69zM212 4.48h2.79v20.6H212v-1.24a5.22 5.22 0 0 1-3.72 1.58c-1.65 0-3.01-.59-4.1-1.78a6.57 6.57 0 0 1-1.62-4.53c0-1.78.54-3.26 1.62-4.44a5.19 5.19 0 0 1 4.04-1.8c1.4 0 2.67.57 3.78 1.71V4.48z" fill="#1E557D"/><path fill="#70BE44" d="M28 6h6V0h-6z"/><path fill="#077286" d="M28 13h6V7h-6z"/><path fill="#70BE44" d="M21 13h6V7h-6zM14 20h6v-6h-6z"/><path fill="#358C9F" d="M0 20h13v-6H0z"/><path fill="#70BE44" d="M7 27h6v-6H7z"/><path fill="#077286" d="M21 20h13v-6H21z"/><path fill="#358C9F" d="M0 27h6v-6H0z"/><path fill="#70BE44" d="M0 34h6v-6H0z"/><path d="M20 7H1.5A12.35 12.35 0 0 0 0 13c0 .05 6.67.05 20 0V7zm-7-7C8.4-.01 4.4 2.07 2 6h25V0H13z" fill="#358C9F"/><path d="M14 27h18.5a12.35 12.35 0 0 0 1.5-6c0-.05-6.67-.05-20 0v6zm7 7c4.8 0 8.7-2.22 11-6H7v5.94L21 34z" fill="#077286"/></g></svg>